<?xml version="1.0" standalone="no"?>
<!DOCTYPE svg PUBLIC "-//W3C//DTD SVG 20010904//EN"
 "http://www.w3.org/TR/2001/REC-SVG-20010904/DTD/svg10.dtd">
<svg version="1.0" xmlns="http://www.w3.org/2000/svg"
 width="1250.000000pt" height="1250.000000pt" viewBox="0 0 1250.000000 1250.000000"
 preserveAspectRatio="xMidYMid meet">
<metadata>
Created by potrace 1.11, written by Peter Selinger 2001-2013
</metadata>
<g transform="translate(0.000000,1250.000000) scale(0.100000,-0.100000)"
fill="#000000" stroke="none">
<path d="M7707 10601 c-469 -435 -1919 -2082 -2741 -3111 -435 -545 -664 -874
-691 -990 -25 -110 264 -271 1143 -639 620 -259 752 -327 752 -383 0 -87 -207
-588 -785 -1903 -638 -1451 -763 -1765 -698 -1765 20 0 388 368 614 615 734
802 1636 1850 2224 2585 483 604 720 950 701 1025 -18 70 -164 177 -416 304
-198 100 -322 155 -825 363 -433 180 -594 252 -635 285 l-25 21 24 73 c55 174
188 491 656 1564 526 1206 709 1643 788 1875 66 198 53 211 -86 81z"/>
</g>
</svg>
